<svg width="38" height="38" viewBox="0 0 38 38" fill="none" xmlns="http://www.w3.org/2000/svg">
<circle cx="19" cy="19" r="17.5" stroke="#02E502" stroke-width="3"/>
<path d="M26.3315 24.9561L12.6275 11.2522C12.2912 10.9159 11.7458 10.9159 11.4094 11.2522L11.2522 11.4094C10.9159 11.7458 10.9159 12.2912 11.2522 12.6275L24.9561 26.3314C25.2925 26.6678 25.8379 26.6678 26.1743 26.3314L26.3315 26.1743C26.6678 25.8379 26.6678 25.2925 26.3315 24.9561Z" fill="#02E502"/>
<path d="M25.1259 11.4039L11.422 25.1078C11.0856 25.4442 11.0856 25.9895 11.422 26.3259L11.5792 26.4831C11.9155 26.8195 12.4609 26.8195 12.7973 26.4831L26.5012 12.7792C26.8376 12.4428 26.8376 11.8974 26.5012 11.5611L26.344 11.4039C26.0076 11.0675 25.4623 11.0675 25.1259 11.4039Z" fill="#02E502"/>
</svg>
