<svg width="40" height="40" viewBox="0 0 40 40" fill="none" xmlns="http://www.w3.org/2000/svg">
<path d="M39 20C39 30.4934 30.4934 39 20 39C9.50659 39 1 30.4934 1 20C1 9.50659 9.50659 1 20 1C30.4934 1 39 9.50659 39 20Z" stroke="#02E602" stroke-width="2"/>
<path d="M20.56 19.52C21.264 19.52 21.896 19.696 22.456 20.048C23.032 20.384 23.48 20.872 23.8 21.512C24.12 22.136 24.28 22.864 24.28 23.696V25.016C24.28 25.848 24.12 26.584 23.8 27.224C23.48 27.848 23.032 28.336 22.456 28.688C21.896 29.024 21.264 29.192 20.56 29.192C19.856 29.192 19.216 29.024 18.64 28.688C18.08 28.336 17.64 27.848 17.32 27.224C17 26.584 16.84 25.848 16.84 25.016V23.696C16.84 22.992 16.984 22.296 17.272 21.608L21.088 12.392H22.576L19.528 19.664C19.832 19.568 20.176 19.52 20.56 19.52ZM22.792 23.696C22.792 22.8 22.584 22.104 22.168 21.608C21.768 21.112 21.232 20.864 20.56 20.864C19.888 20.864 19.344 21.112 18.928 21.608C18.528 22.104 18.328 22.8 18.328 23.696V25.016C18.328 25.912 18.528 26.608 18.928 27.104C19.344 27.6 19.888 27.848 20.56 27.848C21.232 27.848 21.768 27.6 22.168 27.104C22.584 26.608 22.792 25.912 22.792 25.016V23.696Z" fill="white"/>
</svg>
