<svg width="1601" height="846" viewBox="0 0 1601 846" fill="none" xmlns="http://www.w3.org/2000/svg">
<g clip-path="url(#clip0_11637_4)">
<path d="M1328.76 317.132C1330.17 284.96 1305.54 254.944 1282.08 262.545C1258.62 270.146 1239.72 292.779 1237.36 314.776C1234.99 336.773 1274.43 324.384 1292.06 332.051C1309.73 339.825 1328.06 332.312 1328.76 317.132Z" stroke="#F2F1F1" stroke-opacity="0.05" stroke-miterlimit="10"/>
<path d="M1231.28 258.543C1209.06 267.788 1210.57 290.119 1196.24 308.774C1187.87 319.74 1188.91 325.736 1191.27 331.408C1195.11 340.425 1212.54 346.233 1219.3 348.005C1239.85 353.585 1272.84 350.787 1290.22 362.305C1321.01 382.583 1340.56 344.028 1348.36 324.14C1358.41 298.734 1352.44 279.811 1336.54 269.444C1300.87 246.554 1300.85 229.764 1231.28 258.543Z" stroke="#F2F1F1" stroke-opacity="0.05" stroke-miterlimit="10"/>
<path d="M1300.68 229.916C1288.75 215.004 1258.44 231.613 1206.76 240.362C1167.67 247.004 1177.63 290.148 1153.21 319.688C1128.09 350.189 1146.91 354.511 1174.23 363.091C1204.8 372.817 1262.79 369.945 1291.53 392.277C1334.75 425.8 1357.02 355.473 1371.04 330.819C1391.32 295.214 1379.73 275.615 1359.67 261.602C1339.01 247.337 1309.06 240.448 1300.68 229.916Z" stroke="#F2F1F1" stroke-opacity="0.05" stroke-miterlimit="10"/>
<path d="M1312.65 212.46C1300.86 187.34 1257.42 211.743 1182.95 221.538C1127.69 228.752 1145.11 289.519 1110.47 330.12C1073.75 372.946 1101.45 379.69 1144.7 386.522C1188.99 393.536 1258.8 392.174 1293.6 421.458C1349.31 468.421 1374.73 366.255 1395.01 336.593C1426.25 290.885 1410.53 268.554 1384.25 253C1357.88 237.229 1320.51 229.079 1312.65 212.46Z" stroke="#F2F1F1" stroke-opacity="0.05" stroke-miterlimit="10"/>
<path d="M1419.1 342.25C1461.17 286.79 1441.2 261.418 1409.03 244.204C1376.72 227.05 1332.16 217.946 1324.83 194.864C1313.48 159.813 1256.48 191.809 1159.54 202.525C1088.14 210.432 1113.18 288.709 1068.38 340.194C1020.58 395.479 1057.19 404.874 1115.77 409.554C1174.48 414.174 1255.33 414.127 1296.1 450.356C1364.08 510.811 1392.83 376.919 1419.1 342.25Z" stroke="#F2F1F1" stroke-opacity="0.05" stroke-miterlimit="10"/>
<path d="M1128.74 191.565C1057.73 211.489 1060.57 285.176 1018.86 339.862C977.052 394.716 1005 411.892 1055.67 430.121C1084.25 440.385 1129.75 434.939 1174.06 434.826C1223.04 434.71 1265.33 444.589 1289.08 484.676C1335.54 563.235 1417.72 392.848 1440.95 348.86C1473.51 287.34 1450.56 257.42 1415.54 234.823C1380.38 212.287 1334.7 197.68 1326.51 167.943C1314.37 123.854 1234.06 162.08 1128.74 191.565Z" stroke="#F2F1F1" stroke-opacity="0.05" stroke-miterlimit="10"/>
<path d="M1099.09 180.557C1028.43 211.37 1008.89 281.476 970.535 339.319C934.494 393.664 953.124 421.851 996.906 450.393C1027.31 470.222 1087.07 456.988 1145.81 452.383C1207.69 447.555 1260.86 455.819 1283.25 518.293C1315.65 609.156 1444.39 408.638 1464.06 354.83C1488.53 287.851 1461.33 252.704 1423.38 224.942C1385.43 197.18 1338.72 176.949 1329.83 140.534C1316.62 87.8622 1213.26 130.764 1099.09 180.557Z" stroke="#F2F1F1" stroke-opacity="0.05" stroke-miterlimit="10"/>
<path d="M1073.08 172.945C1002.46 213.989 960.489 281.081 925.534 342.194C894.838 395.83 903.2 436.488 941.293 474.031C972.175 504.403 1047.58 482.511 1120.76 473.417C1195.43 464.048 1262.45 469.767 1280.65 555.489C1302.44 658.039 1475.24 427.974 1490.4 364.386C1507.74 291.91 1475.2 251.633 1434.45 218.645C1393.66 185.549 1345.84 159.865 1336.23 116.774C1322.5 55.2796 1195.3 101.787 1073.08 172.945Z" stroke="#F2F1F1" stroke-opacity="0.05" stroke-miterlimit="10"/>
</g>
<g clip-path="url(#clip1_11637_4)">
<path d="M272.396 308.063C270.987 275.891 295.616 245.874 319.077 253.476C342.537 261.077 361.431 283.71 363.797 305.707C366.163 327.704 326.723 315.315 309.098 322.982C291.425 330.756 273.098 323.243 272.396 308.063Z" stroke="#F2F1F1" stroke-opacity="0.05" stroke-miterlimit="10"/>
<path d="M369.878 249.474C392.094 258.719 390.584 281.049 404.912 299.705C413.287 310.671 412.242 316.667 409.888 322.338C406.049 331.355 388.619 337.164 381.86 338.936C361.303 344.515 328.316 341.718 310.937 353.235C280.147 373.513 260.599 334.958 252.791 315.07C242.749 289.664 248.72 270.742 264.62 260.375C300.283 237.485 300.304 220.694 369.878 249.474Z" stroke="#F2F1F1" stroke-opacity="0.05" stroke-miterlimit="10"/>
<path d="M300.473 220.847C312.402 205.935 342.719 222.544 394.398 231.293C433.484 237.935 423.527 281.079 447.947 310.619C473.068 341.12 454.241 345.442 426.923 354.021C396.359 363.748 338.37 360.875 309.622 383.208C266.409 416.73 244.137 346.403 230.111 321.75C209.831 286.145 221.423 266.545 241.488 252.533C262.148 238.267 292.098 231.378 300.473 220.847Z" stroke="#F2F1F1" stroke-opacity="0.05" stroke-miterlimit="10"/>
<path d="M288.503 203.391C300.292 178.271 343.733 202.673 418.202 212.468C473.467 219.683 456.041 280.45 490.683 321.051C527.406 363.876 499.704 370.621 456.459 377.453C412.164 384.467 342.353 383.105 307.56 412.389C251.844 459.352 226.422 357.186 206.148 327.524C174.903 281.816 190.622 259.484 216.902 243.93C243.278 228.16 280.647 220.009 288.503 203.391Z" stroke="#F2F1F1" stroke-opacity="0.05" stroke-miterlimit="10"/>
<path d="M182.053 333.181C139.983 277.721 159.955 252.349 192.127 235.135C224.435 217.981 268.991 208.876 276.324 185.794C287.674 150.743 344.671 182.739 441.618 193.456C513.013 201.362 487.978 279.639 532.779 331.124C580.577 386.409 543.962 395.805 485.386 400.485C426.676 405.105 345.822 405.057 305.053 441.287C237.074 501.741 208.324 367.85 182.053 333.181Z" stroke="#F2F1F1" stroke-opacity="0.05" stroke-miterlimit="10"/>
<path d="M472.415 182.495C543.424 202.42 540.581 276.106 582.299 330.792C624.103 385.647 596.16 402.823 545.489 421.052C516.902 431.316 471.409 425.87 427.1 425.757C378.114 425.64 335.825 435.52 312.076 475.607C265.616 554.165 183.435 383.779 160.2 339.79C127.643 278.271 150.594 248.35 185.619 225.754C220.779 203.218 266.456 188.611 274.646 158.873C286.782 114.785 367.094 153.01 472.415 182.495Z" stroke="#F2F1F1" stroke-opacity="0.05" stroke-miterlimit="10"/>
<path d="M502.061 171.488C572.726 202.301 592.262 272.406 630.621 330.25C666.661 384.595 648.031 412.781 604.25 441.324C573.847 461.153 514.089 447.919 455.341 443.314C393.467 438.485 340.297 446.75 317.907 509.224C285.505 600.086 156.762 399.568 137.092 345.761C112.622 278.782 139.821 243.635 177.774 215.873C215.727 188.11 262.433 167.88 271.329 131.465C284.534 78.7929 387.892 121.695 502.061 171.488Z" stroke="#F2F1F1" stroke-opacity="0.05" stroke-miterlimit="10"/>
<path d="M528.075 163.876C598.691 204.919 640.666 272.012 675.622 333.125C706.317 386.76 697.955 427.418 659.862 464.962C628.98 495.334 553.577 473.441 480.395 464.347C405.723 454.979 338.705 460.698 320.51 546.42C298.719 648.969 125.918 418.905 110.76 355.317C93.419 282.841 125.954 242.563 166.701 209.576C207.496 176.48 255.32 150.796 264.922 107.705C278.658 46.2102 405.851 92.7181 528.075 163.876Z" stroke="#F2F1F1" stroke-opacity="0.05" stroke-miterlimit="10"/>
</g>
<defs>
<clipPath id="clip0_11637_4">
<rect width="656" height="540" fill="white" transform="matrix(0.913545 -0.406737 0.405466 0.91411 782 267)"/>
</clipPath>
<clipPath id="clip1_11637_4">
<rect width="656" height="540" fill="white" transform="matrix(-0.913545 -0.406737 -0.405466 0.91411 819 352)"/>
</clipPath>
</defs>
</svg>
