<svg width="819" height="761" viewBox="0 0 819 761" fill="none" xmlns="http://www.w3.org/2000/svg">
<g clip-path="url(#clip0_98_181)">
<path d="M546.76 317.132C548.168 284.96 523.539 254.944 500.079 262.545C476.618 270.146 457.724 292.779 455.358 314.776C452.992 336.773 492.433 324.384 510.058 332.051C527.73 339.825 546.057 332.312 546.76 317.132Z" stroke="#F2F1F1" stroke-opacity="0.05" stroke-miterlimit="10"/>
<path d="M449.278 258.543C427.062 267.788 428.572 290.119 414.244 308.774C405.869 319.74 406.914 325.736 409.268 331.408C413.106 340.425 430.536 346.233 437.296 348.005C457.853 353.585 490.84 350.787 508.218 362.305C539.009 382.583 558.557 344.028 566.364 324.14C576.407 298.734 570.435 279.811 554.535 269.444C518.873 246.554 518.852 229.764 449.278 258.543Z" stroke="#F2F1F1" stroke-opacity="0.05" stroke-miterlimit="10"/>
<path d="M518.682 229.916C506.753 215.004 476.436 231.613 424.757 240.362C385.671 247.004 395.629 290.148 371.209 319.688C346.088 350.189 364.914 354.511 392.232 363.091C422.796 372.817 480.786 369.945 509.534 392.277C552.747 425.8 575.018 355.473 589.045 330.819C609.325 295.214 597.733 275.615 577.668 261.602C557.007 247.337 527.057 240.448 518.682 229.916Z" stroke="#F2F1F1" stroke-opacity="0.05" stroke-miterlimit="10"/>
<path d="M530.652 212.46C518.864 187.34 475.423 211.743 400.953 221.538C345.689 228.752 363.114 289.519 328.473 330.12C291.75 372.946 319.451 379.69 362.697 386.522C406.991 393.536 476.803 392.174 511.595 421.458C567.311 468.421 592.733 366.255 613.007 336.593C644.253 290.885 628.533 268.554 602.254 253C575.878 237.229 538.508 229.079 530.652 212.46Z" stroke="#F2F1F1" stroke-opacity="0.05" stroke-miterlimit="10"/>
<path d="M637.102 342.25C679.172 286.79 659.201 261.418 627.028 244.204C594.721 227.05 550.164 217.946 542.832 194.864C531.481 159.813 474.484 191.809 377.538 202.525C306.143 210.432 331.178 288.709 286.376 340.194C238.579 395.479 275.194 404.874 333.769 409.554C392.48 414.174 473.334 414.127 514.102 450.356C582.082 510.811 610.832 376.919 637.102 342.25Z" stroke="#F2F1F1" stroke-opacity="0.05" stroke-miterlimit="10"/>
<path d="M346.741 191.565C275.731 211.489 278.574 285.176 236.856 339.862C195.052 394.716 222.995 411.892 273.666 430.121C302.254 440.385 347.746 434.939 392.055 434.826C441.041 434.71 483.33 444.589 507.08 484.676C553.539 563.235 635.72 392.848 658.955 348.86C691.512 287.34 668.562 257.42 633.536 234.823C598.376 212.287 552.7 197.68 544.51 167.943C532.374 123.854 452.061 162.08 346.741 191.565Z" stroke="#F2F1F1" stroke-opacity="0.05" stroke-miterlimit="10"/>
<path d="M317.095 180.557C246.429 211.37 226.893 281.476 188.535 339.319C152.494 393.664 171.124 421.851 214.906 450.393C245.309 470.222 305.067 456.988 363.815 452.383C425.689 447.555 478.858 455.819 501.248 518.293C533.65 609.156 662.394 408.638 682.064 354.83C706.534 287.851 679.334 252.704 641.381 224.942C603.428 197.18 556.723 176.949 547.827 140.534C534.622 87.8622 431.264 130.764 317.095 180.557Z" stroke="#F2F1F1" stroke-opacity="0.05" stroke-miterlimit="10"/>
<path d="M291.081 172.945C220.464 213.989 178.489 281.081 143.534 342.194C112.838 395.83 121.2 436.488 159.293 474.031C190.175 504.403 265.579 482.511 338.761 473.417C413.433 464.048 480.45 469.767 498.646 555.489C520.436 658.039 693.237 427.974 708.395 364.386C725.736 291.91 693.201 251.633 652.455 218.645C611.66 185.549 563.836 159.865 554.233 116.774C540.497 55.2796 413.304 101.787 291.081 172.945Z" stroke="#F2F1F1" stroke-opacity="0.05" stroke-miterlimit="10"/>
</g>
<defs>
<clipPath id="clip0_98_181">
<rect width="656" height="540" fill="white" transform="matrix(0.913545 -0.406737 0.405466 0.91411 0 267)"/>
</clipPath>
</defs>
</svg>
