<svg width="149" height="167" viewBox="0 0 149 167" fill="none" xmlns="http://www.w3.org/2000/svg">
<g clip-path="url(#clip0_98_157)">
<path d="M26.549 141.641C47.4221 140.041 63.1646 121.188 69.3494 101.448C71.7079 93.8944 72.9672 84.9436 68.3082 78.4857C63.6493 72.0279 51.3285 71.6342 48.7711 79.2017C47.2109 83.9409 50.4863 89.2184 55.0432 91.4504C59.6 93.6823 64.9762 93.3941 69.9057 92.4489C89.0269 88.7109 105.667 74.0269 111.552 55.6861" stroke="white" stroke-width="2" stroke-miterlimit="10" stroke-dasharray="12 12"/>
</g>
<g clip-path="url(#clip1_98_157)">
<path d="M122.432 47.8485L121.348 39.2247L112.759 40.5272L111.575 38.0703L123.599 36.2467L125.117 48.3201L122.432 47.8485Z" fill="#DEDCDC"/>
</g>
<defs>
<clipPath id="clip0_98_157">
<rect width="80.6309" height="91.9126" fill="white" transform="matrix(-0.0712773 -0.997457 0.997424 -0.0717338 26.6199 142.634)"/>
</clipPath>
<clipPath id="clip1_98_157">
<rect width="23.8919" height="23.9759" fill="white" transform="matrix(0.603082 -0.797679 0.797352 0.603514 103.436 42.21)"/>
</clipPath>
</defs>
</svg>
