<svg width="818" height="759" viewBox="0 0 818 759" fill="none" xmlns="http://www.w3.org/2000/svg">
<g clip-path="url(#clip0_117_632)">
<path d="M546.546 316.692C547.886 284.61 523.209 254.691 499.778 262.283C476.347 269.876 457.511 292.456 455.192 314.393C452.874 336.33 492.266 323.954 509.896 331.59C527.575 339.333 545.876 331.83 546.546 316.692Z" stroke="#464646" stroke-opacity="0.6" stroke-miterlimit="10"/>
<path d="M448.998 258.321C426.814 267.552 428.37 289.82 414.089 308.431C405.742 319.371 406.799 325.349 409.164 331.004C413.019 339.994 430.451 345.776 437.21 347.54C457.767 353.092 490.729 350.284 508.121 361.76C538.936 381.965 558.392 343.507 566.153 323.67C576.137 298.33 570.129 279.463 554.217 269.134C518.527 246.327 518.471 229.584 448.998 258.321Z" stroke="#464646" stroke-opacity="0.6" stroke-miterlimit="10"/>
<path d="M518.302 229.736C506.349 214.872 476.084 231.451 424.454 240.204C385.404 246.849 395.447 289.867 371.103 319.338C346.06 349.767 364.885 354.067 392.204 362.607C422.771 372.29 480.721 369.393 509.499 391.648C552.757 425.053 574.868 354.91 588.835 330.318C609.029 294.802 597.402 275.263 577.319 261.301C556.641 247.087 526.694 240.233 518.302 229.736Z" stroke="#464646" stroke-opacity="0.6" stroke-miterlimit="10"/>
<path d="M530.229 212.323C518.394 187.279 475.03 211.637 400.624 221.446C345.407 228.67 362.949 289.257 328.413 329.764C291.801 372.49 319.501 379.2 362.735 385.99C407.019 392.96 476.787 391.563 511.62 420.747C567.402 467.548 592.595 365.654 612.796 336.063C643.927 290.466 628.17 268.205 601.873 252.709C575.48 236.997 538.115 228.89 530.229 212.323Z" stroke="#464646" stroke-opacity="0.6" stroke-miterlimit="10"/>
<path d="M636.583 341.008C678.555 285.777 658.583 260.577 626.43 243.512C594.143 226.506 549.627 217.528 542.281 194.584C530.912 159.743 474.007 191.663 377.178 202.488C305.869 210.475 330.948 288.283 286.243 339.566C238.55 394.633 275.133 403.914 333.648 408.468C392.297 412.962 473.062 412.776 513.818 448.738C581.778 508.748 610.374 375.534 636.583 341.008Z" stroke="#464646" stroke-opacity="0.6" stroke-miterlimit="10"/>
<path d="M346.379 191.584C275.465 211.518 278.384 284.826 236.769 339.301C195.067 393.942 223 410.988 273.638 429.045C302.207 439.213 347.647 433.724 391.91 433.542C440.845 433.35 483.101 443.114 506.869 482.961C553.366 561.049 635.278 391.398 658.441 347.596C690.898 286.337 667.939 256.604 632.925 234.176C597.777 211.809 552.132 197.348 543.918 167.773C531.747 123.927 451.559 162.084 346.379 191.584Z" stroke="#464646" stroke-opacity="0.6" stroke-miterlimit="10"/>
<path d="M316.729 180.625C246.17 211.392 226.737 281.19 188.486 338.812C152.546 392.948 171.192 420.973 214.965 449.316C245.362 469.007 305.046 455.75 363.73 451.083C425.538 446.189 478.665 454.337 501.109 516.48C533.588 606.861 661.964 407.119 681.55 353.541C705.916 286.847 678.7 251.908 640.751 224.333C602.802 196.758 556.118 176.691 547.186 140.463C533.931 88.0622 430.726 130.907 316.729 180.625Z" stroke="#464646" stroke-opacity="0.6" stroke-miterlimit="10"/>
<path d="M290.709 173.036C220.211 213.987 178.364 280.83 143.521 341.712C112.925 395.144 121.333 435.607 159.439 472.929C190.332 503.123 265.637 481.23 338.739 472.08C413.329 462.655 480.292 468.259 498.583 553.568C520.488 655.623 692.826 426.374 707.886 363.055C725.116 290.885 692.559 250.834 651.806 218.05C611.006 185.158 563.192 159.654 553.542 116.772C539.738 55.5746 412.725 102.04 290.709 173.036Z" stroke="#464646" stroke-opacity="0.6" stroke-miterlimit="10"/>
</g>
<defs>
<clipPath id="clip0_117_632">
<rect width="655" height="538" fill="white" transform="matrix(0.913553 -0.406719 0.4079 0.913026 0 267)"/>
</clipPath>
</defs>
</svg>
