<svg width="195" height="104" viewBox="0 0 195 104" fill="none" xmlns="http://www.w3.org/2000/svg">
<g filter="url(#filter0_d_98_177)">
<path d="M21 0.399998V35H15.9V14.85L8.65 35H4.1V0.399998H9.2V20.65L16.45 0.399998H21ZM37.4957 9.55C37.4957 8.05 37.229 6.88333 36.6957 6.05C36.1957 5.21666 35.479 4.8 34.5457 4.8C33.579 4.8 32.8124 5.21666 32.2457 6.05C31.7124 6.88333 31.4457 8.05 31.4457 9.55V25.85C31.4457 27.35 31.7124 28.5167 32.2457 29.35C32.8124 30.1833 33.579 30.6 34.5457 30.6C35.5124 30.6 36.2624 30.1833 36.7957 29.35C37.3624 28.5167 37.6457 27.35 37.6457 25.85V23.45H42.7457V26C42.7457 28.7667 41.979 31.0333 40.4457 32.8C38.9457 34.5333 36.979 35.4 34.5457 35.4C32.1124 35.4 30.129 34.5333 28.5957 32.8C27.0957 31.0333 26.3457 28.7667 26.3457 26V9.4C26.3457 6.63333 27.0957 4.38333 28.5957 2.65C30.129 0.883331 32.1124 -2.38419e-06 34.5457 -2.38419e-06C36.9457 -2.38419e-06 38.879 0.883331 40.3457 2.65C41.8457 4.38333 42.5957 6.63333 42.5957 9.4V11.45H37.4957V9.55ZM57.5641 9.55C57.5641 8.05 57.2974 6.88333 56.7641 6.05C56.2641 5.21666 55.5474 4.8 54.6141 4.8C53.6474 4.8 52.8807 5.21666 52.3141 6.05C51.7807 6.88333 51.5141 8.05 51.5141 9.55V25.85C51.5141 27.35 51.7807 28.5167 52.3141 29.35C52.8807 30.1833 53.6474 30.6 54.6141 30.6C55.5807 30.6 56.3307 30.1833 56.8641 29.35C57.4307 28.5167 57.7141 27.35 57.7141 25.85V23.45H62.8141V26C62.8141 28.7667 62.0474 31.0333 60.5141 32.8C59.0141 34.5333 57.0474 35.4 54.6141 35.4C52.1807 35.4 50.1974 34.5333 48.6641 32.8C47.1641 31.0333 46.4141 28.7667 46.4141 26V9.4C46.4141 6.63333 47.1641 4.38333 48.6641 2.65C50.1974 0.883331 52.1807 -2.38419e-06 54.6141 -2.38419e-06C57.0141 -2.38419e-06 58.9474 0.883331 60.4141 2.65C61.9141 4.38333 62.6641 6.63333 62.6641 9.4V11.45H57.5641V9.55ZM82.7395 35H77.6395V5.2H73.8895C73.6895 9.4 73.4228 13.5667 73.0895 17.7C72.7561 21.8333 72.4395 25 72.1395 27.2C71.7395 29.8333 70.8561 31.8 69.4895 33.1C68.1228 34.3667 66.3895 35 64.2895 35V30.2C65.9895 30.2 67.0395 28.9 67.4395 26.3C67.8728 23.3667 68.2728 19.3667 68.6395 14.3C69.0061 9.23333 69.2061 4.6 69.2395 0.399998H82.7395V35ZM88.9633 0.399998H103.063V5.2H94.0633V14.55H101.063V19.35H94.0633V30.2H103.313V35H88.9633V0.399998ZM126.649 30.2V39.95H121.549V35H110.299V39.95H105.199V30.2H107.199C107.733 29.4333 108.133 28.1333 108.399 26.3C108.833 23.3667 109.233 19.3667 109.599 14.3C109.966 9.23333 110.166 4.6 110.199 0.399998H124.099V30.2H126.649ZM118.999 30.2V5.2H114.849C114.649 9.4 114.383 13.5667 114.049 17.7C113.716 21.8333 113.399 25 113.099 27.2C112.966 28.2333 112.699 29.2333 112.299 30.2H118.999ZM145.824 0.399998L136.774 35H131.424L134.224 24.35L127.124 0.399998H132.524L136.624 15.95L140.474 0.399998H145.824ZM148.973 0.399998H163.073V5.2H154.073V14.55H161.073V19.35H154.073V30.2H163.323V35H148.973V0.399998ZM190.509 0.399998V35H185.409V15.25L180.509 29.8H178.309L173.409 15.25V35H168.309V0.399998H172.859L179.409 20.25L185.959 0.399998H190.509ZM20 95H14.9V65.2H9.2V95H4.1V60.4H20V95ZM25.3691 69.4C25.3691 67.6 25.7191 65.9833 26.4191 64.55C27.1525 63.1167 28.1691 62 29.4691 61.2C30.7691 60.4 32.2525 60 33.9191 60C35.5858 60 37.0691 60.4 38.3691 61.2C39.6691 62 40.6691 63.1167 41.3691 64.55C42.1025 65.9833 42.4691 67.6 42.4691 69.4V86C42.4691 87.8 42.1025 89.4167 41.3691 90.85C40.6691 92.2833 39.6691 93.4 38.3691 94.2C37.0691 95 35.5858 95.4 33.9191 95.4C32.2525 95.4 30.7691 95 29.4691 94.2C28.1691 93.4 27.1525 92.2833 26.4191 90.85C25.7191 89.4167 25.3691 87.8 25.3691 86V69.4ZM30.4691 85.85C30.4691 87.3167 30.7691 88.4833 31.3691 89.35C32.0025 90.1833 32.8525 90.6 33.9191 90.6C34.9858 90.6 35.8191 90.1833 36.4191 89.35C37.0525 88.4833 37.3691 87.3167 37.3691 85.85V69.55C37.3691 68.0833 37.0525 66.9333 36.4191 66.1C35.8191 65.2333 34.9858 64.8 33.9191 64.8C32.8525 64.8 32.0025 65.2333 31.3691 66.1C30.7691 66.9333 30.4691 68.0833 30.4691 69.55V85.85ZM58.1012 69.55C58.1012 68.05 57.8345 66.8833 57.3012 66.05C56.8012 65.2167 56.0845 64.8 55.1512 64.8C54.1845 64.8 53.4178 65.2167 52.8512 66.05C52.3178 66.8833 52.0512 68.05 52.0512 69.55V85.85C52.0512 87.35 52.3178 88.5167 52.8512 89.35C53.4178 90.1833 54.1845 90.6 55.1512 90.6C56.1178 90.6 56.8678 90.1833 57.4012 89.35C57.9678 88.5167 58.2512 87.35 58.2512 85.85V83.45H63.3512V86C63.3512 88.7667 62.5845 91.0333 61.0512 92.8C59.5512 94.5333 57.5845 95.4 55.1512 95.4C52.7178 95.4 50.7345 94.5333 49.2012 92.8C47.7012 91.0333 46.9512 88.7667 46.9512 86V69.4C46.9512 66.6333 47.7012 64.3833 49.2012 62.65C50.7345 60.8833 52.7178 60 55.1512 60C57.5512 60 59.4845 60.8833 60.9512 62.65C62.4512 64.3833 63.2012 66.6333 63.2012 69.4V71.45H58.1012V69.55ZM67.8695 60.4H81.9695V65.2H72.9695V74.55H79.9695V79.35H72.9695V90.2H82.2195V95H67.8695V60.4ZM99.1055 76.75C101.772 77.75 103.105 79.75 103.105 82.75V86.9C103.105 88.4 102.772 89.7667 102.105 91C101.439 92.2333 100.489 93.2167 99.2555 93.95C98.0555 94.65 96.6555 95 95.0555 95H87.2055V60.4H94.3055C95.9055 60.4 97.3055 60.7667 98.5055 61.5C99.7388 62.2 100.689 63.1667 101.355 64.4C102.022 65.6333 102.355 67 102.355 68.5V71.35C102.355 72.7833 102.055 73.95 101.455 74.85C100.855 75.75 100.072 76.3833 99.1055 76.75ZM92.3055 65.2V74.65H94.1555C95.1555 74.65 95.9221 74.35 96.4555 73.75C96.9888 73.1167 97.2555 72.2667 97.2555 71.2V68.65C97.2555 67.5833 96.9888 66.75 96.4555 66.15C95.9221 65.5167 95.1555 65.2 94.1555 65.2H92.3055ZM98.0055 82.9C98.0055 81.8333 97.7388 81 97.2055 80.4C96.6721 79.7667 95.9055 79.45 94.9055 79.45H92.3055V90.2H94.9055C95.9055 90.2 96.6721 89.9 97.2055 89.3C97.7388 88.6667 98.0055 87.8167 98.0055 86.75V82.9ZM115.256 72.8C116.856 72.8 118.256 73.1667 119.456 73.9C120.69 74.6 121.64 75.5667 122.306 76.8C122.973 78.0333 123.306 79.4 123.306 80.9V86.9C123.306 88.4 122.973 89.7667 122.306 91C121.64 92.2333 120.69 93.2167 119.456 93.95C118.256 94.65 116.856 95 115.256 95H108.006V60.4H113.106V72.8H115.256ZM130.756 60.4V95H125.656V60.4H130.756ZM118.206 81.05C118.206 79.9833 117.94 79.15 117.406 78.55C116.873 77.9167 116.106 77.6 115.106 77.6H113.106V90.2H115.106C116.106 90.2 116.873 89.9 117.406 89.3C117.94 88.6667 118.206 87.8167 118.206 86.75V81.05Z" fill="#464646" fill-opacity="0.15" shape-rendering="crispEdges"/>
</g>
<defs>
<filter id="filter0_d_98_177" x="0.100098" y="0" width="194.409" height="103.4" filterUnits="userSpaceOnUse" color-interpolation-filters="sRGB">
<feFlood flood-opacity="0" result="BackgroundImageFix"/>
<feColorMatrix in="SourceAlpha" type="matrix" values="0 0 0 0 0 0 0 0 0 0 0 0 0 0 0 0 0 0 127 0" result="hardAlpha"/>
<feOffset dy="4"/>
<feGaussianBlur stdDeviation="2"/>
<feComposite in2="hardAlpha" operator="out"/>
<feColorMatrix type="matrix" values="0 0 0 0 0 0 0 0 0 0 0 0 0 0 0 0 0 0 0.25 0"/>
<feBlend mode="normal" in2="BackgroundImageFix" result="effect1_dropShadow_98_177"/>
<feBlend mode="normal" in="SourceGraphic" in2="effect1_dropShadow_98_177" result="shape"/>
</filter>
</defs>
</svg>
