<svg width="40" height="40" viewBox="0 0 40 40" fill="none" xmlns="http://www.w3.org/2000/svg">
<path d="M39 20C39 30.4934 30.4934 39 20 39C9.50659 39 1 30.4934 1 20C1 9.50659 9.50659 1 20 1C30.4934 1 39 9.50659 39 20Z" stroke="#02E602" stroke-width="2"/>
<path d="M23.608 27.656V29H16.792V27.848L21.4 19.088C21.832 18.24 22.048 17.272 22.048 16.184C22.048 15.288 21.888 14.624 21.568 14.192C21.264 13.76 20.824 13.544 20.248 13.544C19.672 13.544 19.216 13.768 18.88 14.216C18.544 14.648 18.376 15.304 18.376 16.184V16.856H16.888V16.112C16.888 14.88 17.192 13.92 17.8 13.232C18.424 12.544 19.24 12.2 20.248 12.2C21.272 12.2 22.072 12.544 22.648 13.232C23.24 13.92 23.536 14.904 23.536 16.184C23.536 16.808 23.464 17.424 23.32 18.032C23.192 18.64 23 19.176 22.744 19.64L18.52 27.656H23.608Z" fill="white"/>
</svg>
