<svg width="40" height="40" viewBox="0 0 40 40" fill="none" xmlns="http://www.w3.org/2000/svg">
<circle cx="20" cy="20" r="19" stroke="#02E602" stroke-width="2"/>
<path d="M20.464 18.92C22.624 19.096 23.704 20.416 23.704 22.88V25.16C23.704 26.408 23.392 27.392 22.768 28.112C22.144 28.832 21.328 29.192 20.32 29.192C19.312 29.192 18.496 28.832 17.872 28.112C17.248 27.392 16.936 26.408 16.936 25.16V23.936H18.424V25.088C18.424 25.984 18.592 26.672 18.928 27.152C19.28 27.616 19.744 27.848 20.32 27.848C20.896 27.848 21.352 27.616 21.688 27.152C22.04 26.672 22.216 25.984 22.216 25.088V23.048C22.216 21.176 21.544 20.24 20.2 20.24H18.736V19.448L22.144 13.736H17.08V12.392H23.68V13.52L20.464 18.92Z" fill="white"/>
</svg>
