<svg width="40" height="40" viewBox="0 0 40 40" fill="none" xmlns="http://www.w3.org/2000/svg">
<circle cx="20" cy="20" r="19" stroke="#02E602" stroke-width="2"/>
<path d="M20.848 18.08C21.792 18.08 22.544 18.408 23.104 19.064C23.664 19.72 23.944 20.696 23.944 21.992V25.16C23.944 26.408 23.632 27.392 23.008 28.112C22.384 28.832 21.568 29.192 20.56 29.192C19.552 29.192 18.736 28.832 18.112 28.112C17.488 27.392 17.176 26.408 17.176 25.16V23.936H18.664V25.088C18.664 25.984 18.832 26.672 19.168 27.152C19.52 27.616 19.984 27.848 20.56 27.848C21.136 27.848 21.592 27.616 21.928 27.152C22.28 26.672 22.456 25.984 22.456 25.088V22.16C22.456 20.336 21.864 19.424 20.68 19.424C20.2 19.424 19.784 19.552 19.432 19.808C19.08 20.048 18.848 20.368 18.736 20.768H17.416L17.704 12.392H23.68V13.736H19.024L18.832 18.944C19.328 18.368 20 18.08 20.848 18.08Z" fill="white"/>
</svg>
